<mxfile host="app.diagrams.net" agent="Mozilla/5.0 (Windows NT 10.0; Win64; x64) AppleWebKit/537.36 (KHTML, like Gecko) Chrome/136.0.0.0 Safari/537.36 Edg/136.0.0.0" version="27.0.6">
  <diagram name="Page-1" id="z0lgZWhE3fximXOZjlnr">
    <mxGraphModel dx="3072" dy="756" grid="1" gridSize="10" guides="1" tooltips="1" connect="1" arrows="1" fold="1" page="1" pageScale="1" pageWidth="827" pageHeight="1169" math="0" shadow="0">
      <root>
        <mxCell id="0" />
        <mxCell id="1" parent="0" />
        <mxCell id="X4Xy0WXRYtoqIihfbEyI-10" value="User" style="swimlane;fontStyle=1;align=center;verticalAlign=top;childLayout=stackLayout;horizontal=1;startSize=26;horizontalStack=0;resizeParent=1;resizeParentMax=0;resizeLast=0;collapsible=1;marginBottom=0;whiteSpace=wrap;html=1;" vertex="1" parent="1">
          <mxGeometry x="-720" y="200" width="130" height="170" as="geometry" />
        </mxCell>
        <mxCell id="X4Xy0WXRYtoqIihfbEyI-11" value="name: String&lt;div&gt;email:&amp;nbsp;&lt;span style=&quot;background-color: transparent; color: light-dark(rgb(0, 0, 0), rgb(255, 255, 255));&quot;&gt;String&lt;/span&gt;&lt;/div&gt;&lt;div&gt;&lt;span style=&quot;background-color: transparent; color: light-dark(rgb(0, 0, 0), rgb(255, 255, 255));&quot;&gt;phone:&amp;nbsp;&lt;/span&gt;&lt;span style=&quot;background-color: transparent; color: light-dark(rgb(0, 0, 0), rgb(255, 255, 255));&quot;&gt;String&lt;/span&gt;&lt;/div&gt;&lt;div&gt;Vehicle: Vehicle&lt;/div&gt;" style="text;strokeColor=none;fillColor=none;align=left;verticalAlign=top;spacingLeft=4;spacingRight=4;overflow=hidden;rotatable=0;points=[[0,0.5],[1,0.5]];portConstraint=eastwest;whiteSpace=wrap;html=1;" vertex="1" parent="X4Xy0WXRYtoqIihfbEyI-10">
          <mxGeometry y="26" width="130" height="74" as="geometry" />
        </mxCell>
        <mxCell id="X4Xy0WXRYtoqIihfbEyI-12" value="" style="line;strokeWidth=1;fillColor=none;align=left;verticalAlign=middle;spacingTop=-1;spacingLeft=3;spacingRight=3;rotatable=0;labelPosition=right;points=[];portConstraint=eastwest;strokeColor=inherit;" vertex="1" parent="X4Xy0WXRYtoqIihfbEyI-10">
          <mxGeometry y="100" width="130" height="8" as="geometry" />
        </mxCell>
        <mxCell id="X4Xy0WXRYtoqIihfbEyI-13" value="create: void&amp;nbsp;&lt;div&gt;getUser(): User&lt;/div&gt;&lt;div&gt;&amp;nbsp;getVehicle(): Vehicle&lt;/div&gt;" style="text;strokeColor=none;fillColor=none;align=left;verticalAlign=top;spacingLeft=4;spacingRight=4;overflow=hidden;rotatable=0;points=[[0,0.5],[1,0.5]];portConstraint=eastwest;whiteSpace=wrap;html=1;" vertex="1" parent="X4Xy0WXRYtoqIihfbEyI-10">
          <mxGeometry y="108" width="130" height="62" as="geometry" />
        </mxCell>
        <mxCell id="X4Xy0WXRYtoqIihfbEyI-15" value="Vehicle" style="swimlane;fontStyle=1;align=center;verticalAlign=top;childLayout=stackLayout;horizontal=1;startSize=26;horizontalStack=0;resizeParent=1;resizeParentMax=0;resizeLast=0;collapsible=1;marginBottom=0;whiteSpace=wrap;html=1;" vertex="1" parent="1">
          <mxGeometry x="-910" y="210" width="130" height="170" as="geometry" />
        </mxCell>
        <mxCell id="X4Xy0WXRYtoqIihfbEyI-16" value="brand: String&lt;div&gt;modell:&amp;nbsp;&lt;span style=&quot;background-color: transparent; color: light-dark(rgb(0, 0, 0), rgb(255, 255, 255));&quot;&gt;String&lt;/span&gt;&lt;/div&gt;&lt;div&gt;&lt;span style=&quot;background-color: transparent; color: light-dark(rgb(0, 0, 0), rgb(255, 255, 255));&quot;&gt;licencePlate:&amp;nbsp;&lt;/span&gt;&lt;span style=&quot;background-color: transparent; color: light-dark(rgb(0, 0, 0), rgb(255, 255, 255));&quot;&gt;String&lt;/span&gt;&lt;/div&gt;&lt;div&gt;lenght: int&lt;/div&gt;&lt;div&gt;width:&amp;nbsp;&lt;span style=&quot;background-color: transparent; color: light-dark(rgb(0, 0, 0), rgb(255, 255, 255));&quot;&gt;int&lt;br&gt;&lt;/span&gt;&lt;/div&gt;&lt;div&gt;&lt;span style=&quot;background-color: transparent; color: light-dark(rgb(0, 0, 0), rgb(255, 255, 255));&quot;&gt;height:&amp;nbsp;&lt;/span&gt;&lt;span style=&quot;background-color: transparent; color: light-dark(rgb(0, 0, 0), rgb(255, 255, 255));&quot;&gt;int&lt;/span&gt;&lt;/div&gt;" style="text;strokeColor=none;fillColor=none;align=left;verticalAlign=top;spacingLeft=4;spacingRight=4;overflow=hidden;rotatable=0;points=[[0,0.5],[1,0.5]];portConstraint=eastwest;whiteSpace=wrap;html=1;" vertex="1" parent="X4Xy0WXRYtoqIihfbEyI-15">
          <mxGeometry y="26" width="130" height="94" as="geometry" />
        </mxCell>
        <mxCell id="X4Xy0WXRYtoqIihfbEyI-17" value="" style="line;strokeWidth=1;fillColor=none;align=left;verticalAlign=middle;spacingTop=-1;spacingLeft=3;spacingRight=3;rotatable=0;labelPosition=right;points=[];portConstraint=eastwest;strokeColor=inherit;" vertex="1" parent="X4Xy0WXRYtoqIihfbEyI-15">
          <mxGeometry y="120" width="130" height="8" as="geometry" />
        </mxCell>
        <mxCell id="X4Xy0WXRYtoqIihfbEyI-18" value="create: void&amp;nbsp;&lt;div&gt;&amp;nbsp;getVehicle(): Vehicle&lt;/div&gt;" style="text;strokeColor=none;fillColor=none;align=left;verticalAlign=top;spacingLeft=4;spacingRight=4;overflow=hidden;rotatable=0;points=[[0,0.5],[1,0.5]];portConstraint=eastwest;whiteSpace=wrap;html=1;" vertex="1" parent="X4Xy0WXRYtoqIihfbEyI-15">
          <mxGeometry y="128" width="130" height="42" as="geometry" />
        </mxCell>
        <mxCell id="X4Xy0WXRYtoqIihfbEyI-19" value="POI" style="swimlane;fontStyle=1;align=center;verticalAlign=top;childLayout=stackLayout;horizontal=1;startSize=26;horizontalStack=0;resizeParent=1;resizeParentMax=0;resizeLast=0;collapsible=1;marginBottom=0;whiteSpace=wrap;html=1;" vertex="1" parent="1">
          <mxGeometry x="-890" y="510" width="100" height="150" as="geometry" />
        </mxCell>
        <mxCell id="X4Xy0WXRYtoqIihfbEyI-20" value="id: String&lt;div&gt;name:&amp;nbsp;&lt;span style=&quot;background-color: transparent; color: light-dark(rgb(0, 0, 0), rgb(255, 255, 255));&quot;&gt;String&lt;/span&gt;&lt;/div&gt;&lt;div&gt;&lt;span style=&quot;background-color: transparent; color: light-dark(rgb(0, 0, 0), rgb(255, 255, 255));&quot;&gt;location:&amp;nbsp;&lt;/span&gt;&lt;span style=&quot;background-color: transparent; color: light-dark(rgb(0, 0, 0), rgb(255, 255, 255));&quot;&gt;String&lt;/span&gt;&lt;/div&gt;&lt;div&gt;category:&amp;nbsp;&lt;span style=&quot;background-color: transparent; color: light-dark(rgb(0, 0, 0), rgb(255, 255, 255));&quot;&gt;String&lt;/span&gt;&lt;/div&gt;" style="text;strokeColor=none;fillColor=none;align=left;verticalAlign=top;spacingLeft=4;spacingRight=4;overflow=hidden;rotatable=0;points=[[0,0.5],[1,0.5]];portConstraint=eastwest;whiteSpace=wrap;html=1;" vertex="1" parent="X4Xy0WXRYtoqIihfbEyI-19">
          <mxGeometry y="26" width="100" height="74" as="geometry" />
        </mxCell>
        <mxCell id="X4Xy0WXRYtoqIihfbEyI-21" value="" style="line;strokeWidth=1;fillColor=none;align=left;verticalAlign=middle;spacingTop=-1;spacingLeft=3;spacingRight=3;rotatable=0;labelPosition=right;points=[];portConstraint=eastwest;strokeColor=inherit;" vertex="1" parent="X4Xy0WXRYtoqIihfbEyI-19">
          <mxGeometry y="100" width="100" height="8" as="geometry" />
        </mxCell>
        <mxCell id="X4Xy0WXRYtoqIihfbEyI-22" value="&lt;div&gt;create(): void&lt;/div&gt;getPOI(): POI" style="text;strokeColor=none;fillColor=none;align=left;verticalAlign=top;spacingLeft=4;spacingRight=4;overflow=hidden;rotatable=0;points=[[0,0.5],[1,0.5]];portConstraint=eastwest;whiteSpace=wrap;html=1;" vertex="1" parent="X4Xy0WXRYtoqIihfbEyI-19">
          <mxGeometry y="108" width="100" height="42" as="geometry" />
        </mxCell>
        <mxCell id="X4Xy0WXRYtoqIihfbEyI-23" value="&lt;p style=&quot;margin:0px;margin-top:4px;text-align:center;text-decoration:underline;&quot;&gt;Multimedia Integration&lt;/p&gt;&lt;hr size=&quot;1&quot; style=&quot;border-style:solid;&quot;&gt;&lt;p style=&quot;margin:0px;margin-left:8px;&quot;&gt;connectecExternalApps():void&lt;/p&gt;&lt;p style=&quot;margin:0px;margin-left:8px;&quot;&gt;getExternalDecision(): void&lt;/p&gt;" style="verticalAlign=top;align=left;overflow=fill;html=1;whiteSpace=wrap;" vertex="1" parent="1">
          <mxGeometry x="-880" y="750" width="180" height="70" as="geometry" />
        </mxCell>
        <mxCell id="X4Xy0WXRYtoqIihfbEyI-24" value="Route" style="swimlane;fontStyle=1;align=center;verticalAlign=top;childLayout=stackLayout;horizontal=1;startSize=26;horizontalStack=0;resizeParent=1;resizeParentMax=0;resizeLast=0;collapsible=1;marginBottom=0;whiteSpace=wrap;html=1;" vertex="1" parent="1">
          <mxGeometry x="-520" y="410" width="130" height="160" as="geometry" />
        </mxCell>
        <mxCell id="X4Xy0WXRYtoqIihfbEyI-25" value="origin: String&lt;div&gt;Destination:&amp;nbsp;&lt;span style=&quot;background-color: transparent; color: light-dark(rgb(0, 0, 0), rgb(255, 255, 255));&quot;&gt;String&lt;/span&gt;&lt;/div&gt;&lt;div&gt;&lt;span style=&quot;background-color: transparent; color: light-dark(rgb(0, 0, 0), rgb(255, 255, 255));&quot;&gt;stops:&amp;nbsp;&lt;/span&gt;&lt;span style=&quot;background-color: transparent; color: light-dark(rgb(0, 0, 0), rgb(255, 255, 255));&quot;&gt;String[]&lt;/span&gt;&lt;/div&gt;&lt;div&gt;ETAt: Float&lt;/div&gt;&lt;div&gt;Distance: Float&lt;/div&gt;" style="text;strokeColor=none;fillColor=none;align=left;verticalAlign=top;spacingLeft=4;spacingRight=4;overflow=hidden;rotatable=0;points=[[0,0.5],[1,0.5]];portConstraint=eastwest;whiteSpace=wrap;html=1;" vertex="1" parent="X4Xy0WXRYtoqIihfbEyI-24">
          <mxGeometry y="26" width="130" height="84" as="geometry" />
        </mxCell>
        <mxCell id="X4Xy0WXRYtoqIihfbEyI-26" value="" style="line;strokeWidth=1;fillColor=none;align=left;verticalAlign=middle;spacingTop=-1;spacingLeft=3;spacingRight=3;rotatable=0;labelPosition=right;points=[];portConstraint=eastwest;strokeColor=inherit;" vertex="1" parent="X4Xy0WXRYtoqIihfbEyI-24">
          <mxGeometry y="110" width="130" height="8" as="geometry" />
        </mxCell>
        <mxCell id="X4Xy0WXRYtoqIihfbEyI-27" value="create: void&amp;nbsp;&lt;div&gt;&amp;nbsp;getRoute(): Route&lt;/div&gt;" style="text;strokeColor=none;fillColor=none;align=left;verticalAlign=top;spacingLeft=4;spacingRight=4;overflow=hidden;rotatable=0;points=[[0,0.5],[1,0.5]];portConstraint=eastwest;whiteSpace=wrap;html=1;" vertex="1" parent="X4Xy0WXRYtoqIihfbEyI-24">
          <mxGeometry y="118" width="130" height="42" as="geometry" />
        </mxCell>
        <mxCell id="X4Xy0WXRYtoqIihfbEyI-28" value="&lt;p style=&quot;margin:0px;margin-top:4px;text-align:center;text-decoration:underline;&quot;&gt;Speed Limit Zone&lt;/p&gt;&lt;hr size=&quot;1&quot; style=&quot;border-style:solid;&quot;&gt;&lt;p style=&quot;margin:0px;margin-left:8px;&quot;&gt;Location: String&lt;/p&gt;&lt;p style=&quot;margin:0px;margin-left:8px;&quot;&gt;MaxSpeed: int&lt;/p&gt;" style="verticalAlign=top;align=left;overflow=fill;html=1;whiteSpace=wrap;" vertex="1" parent="1">
          <mxGeometry x="-330" y="200" width="130" height="70" as="geometry" />
        </mxCell>
        <mxCell id="X4Xy0WXRYtoqIihfbEyI-31" value="Incident Report" style="swimlane;fontStyle=1;align=center;verticalAlign=top;childLayout=stackLayout;horizontal=1;startSize=26;horizontalStack=0;resizeParent=1;resizeParentMax=0;resizeLast=0;collapsible=1;marginBottom=0;whiteSpace=wrap;html=1;" vertex="1" parent="1">
          <mxGeometry x="-230" y="410" width="140" height="160" as="geometry" />
        </mxCell>
        <mxCell id="X4Xy0WXRYtoqIihfbEyI-32" value="id: String&lt;div&gt;type:&amp;nbsp;&lt;span style=&quot;background-color: transparent; color: light-dark(rgb(0, 0, 0), rgb(255, 255, 255));&quot;&gt;String&lt;/span&gt;&lt;/div&gt;&lt;div&gt;&lt;span style=&quot;background-color: transparent; color: light-dark(rgb(0, 0, 0), rgb(255, 255, 255));&quot;&gt;Location:&amp;nbsp;&lt;/span&gt;&lt;span style=&quot;background-color: transparent; color: light-dark(rgb(0, 0, 0), rgb(255, 255, 255));&quot;&gt;String&lt;/span&gt;&lt;/div&gt;&lt;div&gt;TimeStamp: Date&lt;/div&gt;&lt;div&gt;Reportedby: String&lt;/div&gt;" style="text;strokeColor=none;fillColor=none;align=left;verticalAlign=top;spacingLeft=4;spacingRight=4;overflow=hidden;rotatable=0;points=[[0,0.5],[1,0.5]];portConstraint=eastwest;whiteSpace=wrap;html=1;" vertex="1" parent="X4Xy0WXRYtoqIihfbEyI-31">
          <mxGeometry y="26" width="140" height="84" as="geometry" />
        </mxCell>
        <mxCell id="X4Xy0WXRYtoqIihfbEyI-33" value="" style="line;strokeWidth=1;fillColor=none;align=left;verticalAlign=middle;spacingTop=-1;spacingLeft=3;spacingRight=3;rotatable=0;labelPosition=right;points=[];portConstraint=eastwest;strokeColor=inherit;" vertex="1" parent="X4Xy0WXRYtoqIihfbEyI-31">
          <mxGeometry y="110" width="140" height="8" as="geometry" />
        </mxCell>
        <mxCell id="X4Xy0WXRYtoqIihfbEyI-34" value="create(): void&amp;nbsp;&lt;div&gt;&amp;nbsp;getReport(): IcdReport&lt;/div&gt;" style="text;strokeColor=none;fillColor=none;align=left;verticalAlign=top;spacingLeft=4;spacingRight=4;overflow=hidden;rotatable=0;points=[[0,0.5],[1,0.5]];portConstraint=eastwest;whiteSpace=wrap;html=1;" vertex="1" parent="X4Xy0WXRYtoqIihfbEyI-31">
          <mxGeometry y="118" width="140" height="42" as="geometry" />
        </mxCell>
        <mxCell id="X4Xy0WXRYtoqIihfbEyI-36" style="edgeStyle=orthogonalEdgeStyle;rounded=0;orthogonalLoop=1;jettySize=auto;html=1;exitX=1;exitY=0.5;exitDx=0;exitDy=0;entryX=0;entryY=0.5;entryDx=0;entryDy=0;endArrow=none;startFill=0;" edge="1" parent="1" source="X4Xy0WXRYtoqIihfbEyI-25" target="X4Xy0WXRYtoqIihfbEyI-32">
          <mxGeometry relative="1" as="geometry" />
        </mxCell>
        <mxCell id="X4Xy0WXRYtoqIihfbEyI-37" value="0..*" style="edgeLabel;html=1;align=center;verticalAlign=middle;resizable=0;points=[];" vertex="1" connectable="0" parent="X4Xy0WXRYtoqIihfbEyI-36">
          <mxGeometry x="0.9151" relative="1" as="geometry">
            <mxPoint x="-2" y="-9" as="offset" />
          </mxGeometry>
        </mxCell>
        <mxCell id="X4Xy0WXRYtoqIihfbEyI-38" value="1" style="edgeLabel;html=1;align=center;verticalAlign=middle;resizable=0;points=[];" vertex="1" connectable="0" parent="X4Xy0WXRYtoqIihfbEyI-36">
          <mxGeometry x="-0.8348" y="-1" relative="1" as="geometry">
            <mxPoint x="-5" y="-9" as="offset" />
          </mxGeometry>
        </mxCell>
        <mxCell id="X4Xy0WXRYtoqIihfbEyI-39" style="edgeStyle=orthogonalEdgeStyle;rounded=0;orthogonalLoop=1;jettySize=auto;html=1;exitX=1;exitY=0.5;exitDx=0;exitDy=0;entryX=0;entryY=0.5;entryDx=0;entryDy=0;endArrow=none;startFill=0;" edge="1" parent="1" source="X4Xy0WXRYtoqIihfbEyI-16" target="X4Xy0WXRYtoqIihfbEyI-11">
          <mxGeometry relative="1" as="geometry" />
        </mxCell>
        <mxCell id="X4Xy0WXRYtoqIihfbEyI-41" value="1" style="edgeLabel;html=1;align=center;verticalAlign=middle;resizable=0;points=[];" vertex="1" connectable="0" parent="X4Xy0WXRYtoqIihfbEyI-39">
          <mxGeometry x="0.8793" y="1" relative="1" as="geometry">
            <mxPoint y="-12" as="offset" />
          </mxGeometry>
        </mxCell>
        <mxCell id="X4Xy0WXRYtoqIihfbEyI-42" value="1..*" style="edgeLabel;html=1;align=center;verticalAlign=middle;resizable=0;points=[];" vertex="1" connectable="0" parent="X4Xy0WXRYtoqIihfbEyI-39">
          <mxGeometry x="-0.9541" y="-1" relative="1" as="geometry">
            <mxPoint x="7" y="-14" as="offset" />
          </mxGeometry>
        </mxCell>
        <mxCell id="X4Xy0WXRYtoqIihfbEyI-43" style="edgeStyle=orthogonalEdgeStyle;rounded=0;orthogonalLoop=1;jettySize=auto;html=1;exitX=1;exitY=0.5;exitDx=0;exitDy=0;entryX=0;entryY=0.5;entryDx=0;entryDy=0;endArrow=none;startFill=0;" edge="1" parent="1" source="X4Xy0WXRYtoqIihfbEyI-11" target="X4Xy0WXRYtoqIihfbEyI-25">
          <mxGeometry relative="1" as="geometry" />
        </mxCell>
        <mxCell id="X4Xy0WXRYtoqIihfbEyI-44" value="1..*" style="edgeLabel;html=1;align=center;verticalAlign=middle;resizable=0;points=[];" vertex="1" connectable="0" parent="X4Xy0WXRYtoqIihfbEyI-43">
          <mxGeometry x="-0.9359" y="-2" relative="1" as="geometry">
            <mxPoint y="-15" as="offset" />
          </mxGeometry>
        </mxCell>
        <mxCell id="X4Xy0WXRYtoqIihfbEyI-46" value="1" style="edgeLabel;html=1;align=center;verticalAlign=middle;resizable=0;points=[];" vertex="1" connectable="0" parent="X4Xy0WXRYtoqIihfbEyI-43">
          <mxGeometry x="0.9214" y="-1" relative="1" as="geometry">
            <mxPoint y="-9" as="offset" />
          </mxGeometry>
        </mxCell>
        <mxCell id="X4Xy0WXRYtoqIihfbEyI-47" style="edgeStyle=orthogonalEdgeStyle;rounded=0;orthogonalLoop=1;jettySize=auto;html=1;exitX=1;exitY=0.5;exitDx=0;exitDy=0;entryX=0.02;entryY=0.894;entryDx=0;entryDy=0;entryPerimeter=0;endArrow=none;startFill=0;" edge="1" parent="1" source="X4Xy0WXRYtoqIihfbEyI-20" target="X4Xy0WXRYtoqIihfbEyI-25">
          <mxGeometry relative="1" as="geometry" />
        </mxCell>
        <mxCell id="X4Xy0WXRYtoqIihfbEyI-50" value="1" style="edgeLabel;html=1;align=center;verticalAlign=middle;resizable=0;points=[];" vertex="1" connectable="0" parent="X4Xy0WXRYtoqIihfbEyI-47">
          <mxGeometry x="0.9377" y="1" relative="1" as="geometry">
            <mxPoint x="-2" y="-10" as="offset" />
          </mxGeometry>
        </mxCell>
        <mxCell id="X4Xy0WXRYtoqIihfbEyI-51" value="0..*" style="edgeLabel;html=1;align=center;verticalAlign=middle;resizable=0;points=[];" vertex="1" connectable="0" parent="X4Xy0WXRYtoqIihfbEyI-47">
          <mxGeometry x="-0.9309" relative="1" as="geometry">
            <mxPoint y="-13" as="offset" />
          </mxGeometry>
        </mxCell>
        <mxCell id="X4Xy0WXRYtoqIihfbEyI-49" style="edgeStyle=orthogonalEdgeStyle;rounded=0;orthogonalLoop=1;jettySize=auto;html=1;exitX=0.5;exitY=1;exitDx=0;exitDy=0;entryX=1.001;entryY=0.13;entryDx=0;entryDy=0;entryPerimeter=0;endArrow=none;startFill=0;" edge="1" parent="1" source="X4Xy0WXRYtoqIihfbEyI-28" target="X4Xy0WXRYtoqIihfbEyI-25">
          <mxGeometry relative="1" as="geometry" />
        </mxCell>
        <mxCell id="X4Xy0WXRYtoqIihfbEyI-65" value="1" style="edgeLabel;html=1;align=center;verticalAlign=middle;resizable=0;points=[];" vertex="1" connectable="0" parent="X4Xy0WXRYtoqIihfbEyI-49">
          <mxGeometry x="0.941" relative="1" as="geometry">
            <mxPoint y="-11" as="offset" />
          </mxGeometry>
        </mxCell>
        <mxCell id="X4Xy0WXRYtoqIihfbEyI-66" value="1..*" style="edgeLabel;html=1;align=center;verticalAlign=middle;resizable=0;points=[];" vertex="1" connectable="0" parent="X4Xy0WXRYtoqIihfbEyI-49">
          <mxGeometry x="-0.9358" y="1" relative="1" as="geometry">
            <mxPoint x="14" as="offset" />
          </mxGeometry>
        </mxCell>
        <mxCell id="X4Xy0WXRYtoqIihfbEyI-52" value="&lt;p style=&quot;margin:0px;margin-top:4px;text-align:center;text-decoration:underline;&quot;&gt;Limit Controller&lt;/p&gt;&lt;hr size=&quot;1&quot; style=&quot;border-style:solid;&quot;&gt;&lt;p style=&quot;margin:0px;margin-left:8px;&quot;&gt;checkSpeedLimit():Bool&lt;/p&gt;" style="verticalAlign=top;align=left;overflow=fill;html=1;whiteSpace=wrap;" vertex="1" parent="1">
          <mxGeometry x="-400" y="780" width="155" height="50" as="geometry" />
        </mxCell>
        <mxCell id="X4Xy0WXRYtoqIihfbEyI-53" value="&lt;p style=&quot;margin:0px;margin-top:4px;text-align:center;text-decoration:underline;&quot;&gt;Route Processor&lt;/p&gt;&lt;hr size=&quot;1&quot; style=&quot;border-style:solid;&quot;&gt;&lt;p style=&quot;margin:0px;margin-left:8px;&quot;&gt;calcDistance():float&lt;/p&gt;&lt;p style=&quot;margin:0px;margin-left:8px;&quot;&gt;calcETA(). float&lt;/p&gt;&lt;p style=&quot;margin:0px;margin-left:8px;&quot;&gt;calcDirections(): String []&lt;/p&gt;" style="verticalAlign=top;align=left;overflow=fill;html=1;whiteSpace=wrap;" vertex="1" parent="1">
          <mxGeometry x="-355" y="640" width="155" height="75" as="geometry" />
        </mxCell>
        <mxCell id="X4Xy0WXRYtoqIihfbEyI-64" style="edgeStyle=orthogonalEdgeStyle;rounded=0;orthogonalLoop=1;jettySize=auto;html=1;entryX=0.004;entryY=0.088;entryDx=0;entryDy=0;endArrow=diamondThin;endFill=0;entryPerimeter=0;" edge="1" parent="1" target="X4Xy0WXRYtoqIihfbEyI-25">
          <mxGeometry relative="1" as="geometry">
            <mxPoint x="-755" y="443" as="sourcePoint" />
          </mxGeometry>
        </mxCell>
        <mxCell id="X4Xy0WXRYtoqIihfbEyI-54" value="&lt;p style=&quot;margin:0px;margin-top:4px;text-align:center;text-decoration:underline;&quot;&gt;GPS&lt;/p&gt;&lt;hr size=&quot;1&quot; style=&quot;border-style:solid;&quot;&gt;&lt;p style=&quot;margin:0px;margin-left:8px;&quot;&gt;getLocation(): String&lt;/p&gt;" style="verticalAlign=top;align=left;overflow=fill;html=1;whiteSpace=wrap;" vertex="1" parent="1">
          <mxGeometry x="-910" y="430" width="155" height="50" as="geometry" />
        </mxCell>
        <mxCell id="X4Xy0WXRYtoqIihfbEyI-73" style="edgeStyle=orthogonalEdgeStyle;rounded=0;orthogonalLoop=1;jettySize=auto;html=1;exitX=1;exitY=0.5;exitDx=0;exitDy=0;entryX=0;entryY=0.5;entryDx=0;entryDy=0;endArrow=none;startFill=0;" edge="1" parent="1" source="X4Xy0WXRYtoqIihfbEyI-55" target="X4Xy0WXRYtoqIihfbEyI-52">
          <mxGeometry relative="1" as="geometry" />
        </mxCell>
        <mxCell id="X4Xy0WXRYtoqIihfbEyI-55" value="&lt;p style=&quot;margin:0px;margin-top:4px;text-align:center;text-decoration:underline;&quot;&gt;Navigation Controller&lt;/p&gt;&lt;hr size=&quot;1&quot; style=&quot;border-style:solid;&quot;&gt;&lt;p style=&quot;margin:0px;margin-left:8px;&quot;&gt;getNextDiretion(): String[]&lt;/p&gt;&lt;p style=&quot;margin:0px;margin-left:8px;&quot;&gt;checkDirections(): void&lt;/p&gt;" style="verticalAlign=top;align=left;overflow=fill;html=1;whiteSpace=wrap;" vertex="1" parent="1">
          <mxGeometry x="-650" y="780" width="155" height="75" as="geometry" />
        </mxCell>
        <mxCell id="X4Xy0WXRYtoqIihfbEyI-59" style="edgeStyle=orthogonalEdgeStyle;rounded=0;orthogonalLoop=1;jettySize=auto;html=1;exitX=0.5;exitY=0;exitDx=0;exitDy=0;entryX=0.462;entryY=1;entryDx=0;entryDy=0;entryPerimeter=0;dashed=1;" edge="1" parent="1" source="X4Xy0WXRYtoqIihfbEyI-53" target="X4Xy0WXRYtoqIihfbEyI-27">
          <mxGeometry relative="1" as="geometry" />
        </mxCell>
        <mxCell id="X4Xy0WXRYtoqIihfbEyI-62" style="edgeStyle=orthogonalEdgeStyle;rounded=0;orthogonalLoop=1;jettySize=auto;html=1;exitX=1;exitY=0.5;exitDx=0;exitDy=0;entryX=0.531;entryY=0.991;entryDx=0;entryDy=0;entryPerimeter=0;dashed=1;" edge="1" parent="1" source="X4Xy0WXRYtoqIihfbEyI-53" target="X4Xy0WXRYtoqIihfbEyI-34">
          <mxGeometry relative="1" as="geometry" />
        </mxCell>
        <mxCell id="X4Xy0WXRYtoqIihfbEyI-63" style="edgeStyle=orthogonalEdgeStyle;rounded=0;orthogonalLoop=1;jettySize=auto;html=1;exitX=0;exitY=0.5;exitDx=0;exitDy=0;entryX=0.91;entryY=0;entryDx=0;entryDy=0;entryPerimeter=0;dashed=1;" edge="1" parent="1" source="X4Xy0WXRYtoqIihfbEyI-53" target="X4Xy0WXRYtoqIihfbEyI-55">
          <mxGeometry relative="1" as="geometry" />
        </mxCell>
        <mxCell id="X4Xy0WXRYtoqIihfbEyI-69" style="edgeStyle=orthogonalEdgeStyle;rounded=0;orthogonalLoop=1;jettySize=auto;html=1;exitX=0.5;exitY=1;exitDx=0;exitDy=0;entryX=0.5;entryY=0;entryDx=0;entryDy=0;dashed=1;" edge="1" parent="1" source="X4Xy0WXRYtoqIihfbEyI-68" target="X4Xy0WXRYtoqIihfbEyI-23">
          <mxGeometry relative="1" as="geometry" />
        </mxCell>
        <mxCell id="X4Xy0WXRYtoqIihfbEyI-70" style="edgeStyle=orthogonalEdgeStyle;rounded=0;orthogonalLoop=1;jettySize=auto;html=1;exitX=0.75;exitY=1;exitDx=0;exitDy=0;entryX=0.5;entryY=0;entryDx=0;entryDy=0;dashed=1;" edge="1" parent="1" source="X4Xy0WXRYtoqIihfbEyI-68" target="X4Xy0WXRYtoqIihfbEyI-55">
          <mxGeometry relative="1" as="geometry" />
        </mxCell>
        <mxCell id="X4Xy0WXRYtoqIihfbEyI-72" style="edgeStyle=orthogonalEdgeStyle;rounded=0;orthogonalLoop=1;jettySize=auto;html=1;exitX=1;exitY=1;exitDx=0;exitDy=0;entryX=0.25;entryY=0;entryDx=0;entryDy=0;endArrow=classic;endFill=1;dashed=1;" edge="1" parent="1" source="X4Xy0WXRYtoqIihfbEyI-68" target="X4Xy0WXRYtoqIihfbEyI-52">
          <mxGeometry relative="1" as="geometry">
            <Array as="points">
              <mxPoint x="-535" y="720" />
              <mxPoint x="-361" y="720" />
            </Array>
          </mxGeometry>
        </mxCell>
        <mxCell id="X4Xy0WXRYtoqIihfbEyI-68" value="&lt;p style=&quot;margin:0px;margin-top:4px;text-align:center;text-decoration:underline;&quot;&gt;System&lt;/p&gt;&lt;hr size=&quot;1&quot; style=&quot;border-style:solid;&quot;&gt;&lt;p style=&quot;margin:0px;margin-left:8px;&quot;&gt;&lt;br&gt;&lt;/p&gt;" style="verticalAlign=top;align=left;overflow=fill;html=1;whiteSpace=wrap;" vertex="1" parent="1">
          <mxGeometry x="-690" y="590" width="155" height="50" as="geometry" />
        </mxCell>
        <mxCell id="X4Xy0WXRYtoqIihfbEyI-71" style="edgeStyle=orthogonalEdgeStyle;rounded=0;orthogonalLoop=1;jettySize=auto;html=1;exitX=1;exitY=0.75;exitDx=0;exitDy=0;entryX=0;entryY=0.25;entryDx=0;entryDy=0;dashed=1;" edge="1" parent="1" source="X4Xy0WXRYtoqIihfbEyI-68" target="X4Xy0WXRYtoqIihfbEyI-53">
          <mxGeometry relative="1" as="geometry" />
        </mxCell>
      </root>
    </mxGraphModel>
  </diagram>
</mxfile>
